<?xml version="1.0" encoding="UTF-8" standalone="no"?><!DOCTYPE svg PUBLIC "-//W3C//DTD SVG 1.1//EN" "http://www.w3.org/Graphics/SVG/1.1/DTD/svg11.dtd"><svg width="100%" height="100%" viewBox="0 0 3125 834" version="1.1" xmlns="http://www.w3.org/2000/svg" xmlns:xlink="http://www.w3.org/1999/xlink" xml:space="preserve" xmlns:serif="http://www.serif.com/" style="fill-rule:evenodd;clip-rule:evenodd;stroke-linejoin:round;stroke-miterlimit:2;"><g id="Payzip-Logo" serif:id="Payzip Logo"><path id="Payzip-Text-Black" serif:id="Payzip Text Black" d="M2726.35,738.704l-2.296,-5.693c-0.115,-0.287 -0.228,-0.575 -0.341,-0.863c-0.276,-0.715 -0.547,-1.431 -0.808,-2.152c-0.66,-1.829 -1.261,-3.68 -1.793,-5.55c-0.593,-2.086 -1.101,-4.197 -1.508,-6.327c-0.316,-1.656 -0.572,-3.323 -0.76,-4.999c-0.153,-1.37 -0.261,-2.745 -0.32,-4.122c-0.097,-2.251 -0.074,-4.51 0.18,-6.75c0.369,-3.247 1.22,-6.461 2.749,-9.361c0.427,-0.809 0.904,-1.592 1.432,-2.339c0.657,-0.931 1.392,-1.807 2.196,-2.614c1.062,-1.064 2.246,-2 3.519,-2.798c1.866,-1.168 3.908,-2.035 6.019,-2.65c2.712,-0.792 5.532,-1.178 8.35,-1.316c0.83,-0.041 1.661,-0.057 2.493,-0.06l19.268,0c0.52,-10.906 0.926,-21.818 1.255,-32.732c0.336,-11.134 0.594,-22.271 0.797,-33.409c0.387,-21.209 0.58,-42.422 0.656,-63.634c0.022,-6.129 0.032,-12.258 0.037,-18.387c0.011,-57.794 0.013,-115.587 0,-173.381c-0.01,-11.232 -0.077,-22.464 -0.243,-33.695c-0.129,-8.734 -0.318,-17.467 -0.596,-26.197c-0.26,-8.168 -0.599,-16.335 -1.077,-24.494c-0.223,-3.797 -0.476,-7.593 -0.776,-11.385c-0.26,-3.298 -0.554,-6.595 -0.901,-9.886c-0.245,-2.322 -0.515,-4.641 -0.825,-6.955c-0.292,-2.173 -0.617,-4.342 -1,-6.5c-0.357,-2.016 -0.761,-4.027 -1.273,-6.01c-0.206,-0.798 -0.429,-1.592 -0.685,-2.376c-0.185,-0.57 -0.386,-1.135 -0.621,-1.687c-0.17,-0.4 -0.366,-0.79 -0.567,-1.176c-0.26,-0.497 -0.535,-0.985 -0.825,-1.465c-1.052,-1.736 -2.32,-3.342 -3.799,-4.734c-1.401,-1.32 -2.984,-2.438 -4.681,-3.345c-2.158,-1.153 -4.485,-1.965 -6.862,-2.527c-2.608,-0.616 -5.281,-0.935 -7.956,-1.061c-0.798,-0.038 -1.597,-0.055 -2.396,-0.062l-5.759,-0.016l-2.423,-5.264c-0.119,-0.264 -0.237,-0.528 -0.355,-0.792c-0.289,-0.661 -0.571,-1.324 -0.841,-1.994c-0.428,-1.064 -0.828,-2.139 -1.199,-3.225c-1.127,-3.294 -1.982,-6.681 -2.542,-10.117c-0.398,-2.448 -0.649,-4.92 -0.75,-7.399c-0.023,-0.568 -0.038,-1.137 -0.046,-1.705c-0.011,-0.792 -0.008,-1.583 0.027,-2.374c0.11,-2.488 0.505,-4.972 1.297,-7.337c0.568,-1.698 1.34,-3.33 2.321,-4.829c1.111,-1.698 2.487,-3.216 4.067,-4.488c1.345,-1.082 2.831,-1.981 4.401,-2.694c0.453,-0.206 0.912,-0.396 1.377,-0.572c0.339,-0.128 0.68,-0.248 1.027,-0.355c0.775,-0.239 1.566,-0.423 2.361,-0.583c0.748,-0.15 1.501,-0.277 2.256,-0.393c1.882,-0.289 3.774,-0.509 5.666,-0.708c2.099,-0.221 4.2,-0.41 6.303,-0.584c2.339,-0.194 4.679,-0.368 7.02,-0.531c7.139,-0.497 14.284,-0.894 21.43,-1.257c8.626,-0.437 17.255,-0.817 25.884,-1.169c9.633,-0.392 19.267,-0.746 28.901,-1.082l10.453,-0.36l1.133,8.055c0.051,0.373 0.101,0.746 0.15,1.119c0.141,1.121 0.273,2.243 0.387,3.368c0.191,1.887 0.34,3.779 0.446,5.674c0.13,2.297 0.199,4.597 0.208,6.898c0.004,0.967 -0.004,1.935 -0.018,2.902l-0.002,0.091c0.588,-0.323 1.178,-0.644 1.768,-0.963c0.488,-0.263 0.977,-0.525 1.466,-0.787c4.091,-2.176 8.228,-4.265 12.414,-6.255c7.59,-3.608 15.328,-6.902 23.186,-9.882c2.82,-1.07 5.655,-2.1 8.504,-3.089c2.351,-0.816 4.71,-1.608 7.086,-2.351c2.42,-0.758 4.855,-1.469 7.301,-2.136c9.723,-2.65 19.635,-4.593 29.622,-5.93c9.523,-1.275 19.116,-2.001 28.719,-2.269c4.229,-0.118 8.462,-0.154 12.693,-0.089c3.566,0.054 7.132,0.182 10.692,0.392c2.728,0.161 5.454,0.369 8.174,0.63c2.127,0.204 4.251,0.44 6.37,0.709c13.167,1.676 26.212,4.667 38.599,9.483c1.749,0.68 3.483,1.396 5.201,2.149c2.539,1.112 5.043,2.306 7.504,3.582c3.759,1.95 7.417,4.096 10.948,6.435c4.473,2.964 8.738,6.243 12.744,9.814c2.439,2.173 4.782,4.455 7.021,6.835c1.958,2.082 3.835,4.238 5.619,6.471c1.052,1.317 2.071,2.661 3.059,4.027c6.874,9.504 12.178,20.073 16.289,31.04c3.13,8.353 5.577,16.956 7.514,25.66c2.152,9.665 3.68,19.464 4.754,29.304c1.595,14.614 2.202,29.322 2.179,44.018c-0.01,6.475 -0.124,12.95 -0.356,19.421c-0.335,9.361 -0.918,18.714 -1.799,28.039c-0.676,7.155 -1.53,14.293 -2.586,21.401c-0.853,5.74 -1.841,11.461 -2.983,17.151c-0.8,3.987 -1.673,7.96 -2.629,11.914c-0.813,3.363 -1.685,6.713 -2.622,10.044c-2.671,9.509 -5.86,18.878 -9.681,27.988c-2.992,7.134 -6.367,14.11 -10.177,20.844c-1.265,2.235 -2.577,4.443 -3.937,6.621c-1.563,2.503 -3.191,4.966 -4.884,7.383c-2.377,3.396 -4.884,6.701 -7.52,9.9c-6.691,8.122 -14.18,15.585 -22.359,22.208c-5.796,4.693 -11.936,8.959 -18.346,12.768c-5.447,3.238 -11.09,6.145 -16.878,8.725c-11.477,5.114 -23.509,8.93 -35.775,11.629c-12.813,2.82 -25.875,4.434 -38.971,5.122c-3.9,0.205 -7.804,0.328 -11.709,0.375c-2.306,0.028 -4.611,0.027 -6.917,0.011c-5.733,-0.04 -11.467,-0.189 -17.193,-0.493c-5.097,-0.271 -10.189,-0.664 -15.261,-1.238c-2.214,-0.251 -4.424,-0.536 -6.628,-0.863c-0.949,-0.141 -1.895,-0.291 -2.841,-0.445c-1.263,-0.205 -2.525,-0.417 -3.786,-0.636c-4.624,-0.804 -9.23,-1.711 -13.804,-2.762l-0.327,-0.076c0.121,15.817 0.327,31.633 0.64,47.446c0.311,15.721 0.725,31.441 1.279,47.155c0.225,6.387 0.475,12.772 0.746,19.157l0.053,1.232l49.129,0l2.412,5.278c0.391,0.874 0.769,1.754 1.122,2.645c0.755,1.906 1.409,3.852 1.963,5.826c0.705,2.514 1.242,5.075 1.614,7.659c0.276,1.923 0.463,3.859 0.561,5.8c0.07,1.379 0.098,2.76 0.08,4.141c-0.013,0.998 -0.052,1.997 -0.122,2.993c-0.042,0.602 -0.096,1.204 -0.163,1.804c-0.06,0.534 -0.13,1.067 -0.212,1.597c-0.472,3.065 -1.331,6.094 -2.817,8.828c-0.223,0.409 -0.46,0.812 -0.711,1.205c-0.346,0.541 -0.718,1.066 -1.117,1.57c-0.557,0.703 -1.166,1.365 -1.823,1.975c-1.012,0.942 -2.14,1.755 -3.339,2.443c-1.564,0.898 -3.244,1.582 -4.968,2.107c-2.248,0.685 -4.573,1.101 -6.906,1.359c-1.026,0.114 -2.056,0.197 -3.087,0.255c-1.226,0.068 -2.454,0.099 -3.682,0.108c-56.443,0.153 -112.887,0.001 -169.331,0.001Zm-1804.66,0l-2.296,-5.692c-0.115,-0.288 -0.229,-0.576 -0.342,-0.864c-0.33,-0.857 -0.653,-1.716 -0.961,-2.581c-0.6,-1.689 -1.149,-3.397 -1.639,-5.121c-0.594,-2.086 -1.101,-4.196 -1.508,-6.326c-0.317,-1.656 -0.572,-3.324 -0.76,-5c-0.138,-1.234 -0.24,-2.472 -0.302,-3.712c-0.119,-2.386 -0.108,-4.784 0.162,-7.16c0.182,-1.601 0.478,-3.191 0.918,-4.742c0.466,-1.646 1.095,-3.247 1.903,-4.756c0.409,-0.762 0.863,-1.499 1.362,-2.205c0.656,-0.929 1.389,-1.803 2.192,-2.609c1.061,-1.064 2.246,-2.001 3.519,-2.799c1.866,-1.169 3.909,-2.035 6.02,-2.651c2.713,-0.792 5.532,-1.178 8.35,-1.316c0.831,-0.041 1.662,-0.057 2.494,-0.06l19.268,0c0.626,-13.178 1.09,-26.363 1.451,-39.551c0.266,-9.709 0.476,-19.419 0.646,-29.13c0.464,-26.491 0.628,-52.987 0.647,-79.481c0.015,-57.794 0.02,-115.587 0.001,-173.38c-0.011,-11.232 -0.077,-22.465 -0.244,-33.696c-0.129,-8.734 -0.317,-17.467 -0.595,-26.197c-0.261,-8.168 -0.599,-16.335 -1.078,-24.494c-0.222,-3.797 -0.476,-7.593 -0.775,-11.385c-0.26,-3.299 -0.554,-6.595 -0.901,-9.885c-0.258,-2.441 -0.543,-4.879 -0.874,-7.311c-0.279,-2.054 -0.589,-4.104 -0.951,-6.145c-0.345,-1.946 -0.734,-3.886 -1.22,-5.802c-0.193,-0.759 -0.401,-1.514 -0.635,-2.261c-0.201,-0.643 -0.42,-1.281 -0.679,-1.902c-0.167,-0.402 -0.358,-0.791 -0.558,-1.177c-0.275,-0.534 -0.569,-1.058 -0.88,-1.572c-1.051,-1.735 -2.319,-3.341 -3.797,-4.733c-1.402,-1.32 -2.985,-2.439 -4.683,-3.346c-2.157,-1.153 -4.484,-1.965 -6.861,-2.527c-2.608,-0.615 -5.281,-0.935 -7.956,-1.061c-0.799,-0.038 -1.597,-0.055 -2.397,-0.062l-5.759,-0.016l-2.422,-5.263c-0.119,-0.264 -0.238,-0.528 -0.355,-0.793c-0.289,-0.661 -0.572,-1.324 -0.841,-1.994c-0.482,-1.196 -0.928,-2.407 -1.337,-3.631c-1.059,-3.165 -1.867,-6.414 -2.404,-9.709c-0.399,-2.448 -0.649,-4.921 -0.75,-7.4c-0.029,-0.711 -0.046,-1.422 -0.051,-2.134c-0.005,-0.649 0.003,-1.298 0.031,-1.946c0.111,-2.487 0.506,-4.97 1.296,-7.334c0.569,-1.699 1.341,-3.332 2.323,-4.832c1.071,-1.637 2.389,-3.109 3.9,-4.353c1.388,-1.141 2.932,-2.086 4.566,-2.829c0.453,-0.205 0.913,-0.396 1.379,-0.572c0.34,-0.128 0.682,-0.249 1.029,-0.356c0.774,-0.239 1.564,-0.422 2.358,-0.582c0.749,-0.15 1.502,-0.277 2.256,-0.393c1.882,-0.289 3.774,-0.509 5.667,-0.708c2.098,-0.221 4.2,-0.41 6.303,-0.584c2.338,-0.194 4.679,-0.368 7.02,-0.531c7.138,-0.497 14.283,-0.894 21.429,-1.257c8.626,-0.437 17.255,-0.817 25.885,-1.169c9.632,-0.392 19.266,-0.746 28.901,-1.082l10.454,-0.36l1.132,8.056c0.05,0.372 0.1,0.744 0.149,1.117c0.142,1.122 0.274,2.244 0.387,3.369c0.192,1.887 0.34,3.779 0.447,5.673c0.129,2.297 0.198,4.597 0.208,6.898c0.004,0.968 -0.004,1.935 -0.019,2.903l-0.002,0.091c0.589,-0.323 1.178,-0.643 1.768,-0.963c0.488,-0.263 0.977,-0.525 1.466,-0.786c4.419,-2.351 8.892,-4.599 13.421,-6.732c7.267,-3.423 14.669,-6.558 22.179,-9.407c2.82,-1.069 5.655,-2.098 8.504,-3.087c2.352,-0.817 4.711,-1.609 7.086,-2.353c2.421,-0.757 4.855,-1.468 7.302,-2.135c9.723,-2.65 19.634,-4.594 29.621,-5.93c9.523,-1.275 19.116,-2.001 28.719,-2.269c4.23,-0.118 8.463,-0.154 12.693,-0.089c3.567,0.054 7.132,0.182 10.693,0.392c2.728,0.161 5.453,0.369 8.174,0.63c2.126,0.204 4.25,0.44 6.369,0.709c13.323,1.696 26.521,4.738 39.039,9.655c1.744,0.685 3.474,1.406 5.188,2.164c2.532,1.121 5.03,2.322 7.484,3.607c3.617,1.894 7.14,3.969 10.544,6.225c4.472,2.964 8.736,6.242 12.741,9.812c2.329,2.074 4.569,4.247 6.715,6.51c2.069,2.182 4.05,4.447 5.926,6.797c1.148,1.438 2.257,2.906 3.329,4.401c6.845,9.548 12.119,20.155 16.2,31.153c2.91,7.842 5.222,15.9 7.081,24.054c2.238,9.818 3.82,19.779 4.935,29.785c1.402,12.583 2.061,25.243 2.216,37.9c0.031,2.566 0.04,5.132 0.032,7.698c-0.02,6.161 -0.133,12.322 -0.355,18.479c-0.336,9.361 -0.917,18.714 -1.799,28.039c-0.676,7.155 -1.528,14.294 -2.586,21.403c-0.854,5.738 -1.842,11.457 -2.982,17.145c-0.897,4.479 -1.89,8.939 -2.986,13.373c-0.827,3.347 -1.714,6.679 -2.664,9.994c-0.73,2.545 -1.498,5.08 -2.305,7.601c-5.326,16.63 -12.398,32.764 -21.77,47.524c-1.579,2.486 -3.221,4.931 -4.928,7.33c-2.162,3.037 -4.428,5.999 -6.798,8.876c-6.693,8.121 -14.18,15.586 -22.359,22.208c-5.796,4.692 -11.935,8.958 -18.345,12.767c-5.27,3.132 -10.723,5.955 -16.313,8.471c-5.144,2.316 -10.405,4.371 -15.749,6.179c-10.345,3.501 -20.994,6.069 -31.765,7.855c-9.913,1.643 -19.931,2.627 -29.967,3.077c-3.178,0.142 -6.358,0.23 -9.539,0.269c-2.306,0.028 -4.612,0.027 -6.918,0.011c-5.733,-0.04 -11.466,-0.189 -17.192,-0.493c-5.097,-0.271 -10.189,-0.664 -15.261,-1.238c-2.215,-0.251 -4.425,-0.536 -6.629,-0.863c-0.948,-0.141 -1.895,-0.291 -2.841,-0.445c-1.263,-0.205 -2.525,-0.417 -3.786,-0.636c-4.733,-0.823 -9.449,-1.751 -14.13,-2.838c0.019,2.512 0.041,5.024 0.064,7.536c0.255,26.396 0.736,52.791 1.588,79.174c0.291,9.018 0.63,18.033 1.013,27.047l0.053,1.233l49.127,0l2.412,5.275c0.448,1 0.876,2.009 1.273,3.03c0.692,1.785 1.298,3.604 1.815,5.447c0.703,2.513 1.24,5.071 1.612,7.654c0.277,1.924 0.463,3.86 0.562,5.802c0.07,1.378 0.098,2.758 0.08,4.138c-0.013,1 -0.052,1.999 -0.122,2.996c-0.043,0.604 -0.097,1.207 -0.165,1.809c-0.404,3.611 -1.284,7.225 -3.035,10.433c-0.25,0.458 -0.517,0.907 -0.802,1.344c-0.352,0.541 -0.732,1.065 -1.138,1.567c-0.525,0.648 -1.095,1.26 -1.706,1.828c-1.012,0.941 -2.14,1.754 -3.338,2.442c-1.565,0.898 -3.245,1.582 -4.969,2.107c-2.247,0.683 -4.571,1.1 -6.903,1.358c-1.027,0.114 -2.056,0.197 -3.088,0.255c-1.226,0.068 -2.453,0.099 -3.681,0.108c-56.444,0.153 -112.888,0.001 -169.331,0.001Zm1599.28,-174.352l-2.198,-5.9c-0.105,-0.286 -0.21,-0.572 -0.313,-0.858c-0.352,-0.989 -0.694,-1.981 -1.016,-2.979c-0.539,-1.671 -1.031,-3.358 -1.468,-5.059c-0.53,-2.06 -0.979,-4.141 -1.337,-6.238c-0.278,-1.633 -0.5,-3.276 -0.661,-4.925c-0.118,-1.214 -0.202,-2.432 -0.25,-3.651c-0.084,-2.11 -0.071,-4.227 0.138,-6.329c0.348,-3.507 1.231,-6.993 2.913,-10.106c0.403,-0.744 0.848,-1.465 1.337,-2.156c0.647,-0.913 1.37,-1.772 2.161,-2.564c1.006,-1.005 2.131,-1.888 3.337,-2.642c1.792,-1.12 3.753,-1.949 5.776,-2.545c3.032,-0.893 6.199,-1.274 9.35,-1.379c0.608,-0.02 1.217,-0.027 1.825,-0.029l21.054,0c0.717,-15.704 1.22,-31.418 1.582,-47.134c0.419,-18.179 0.643,-36.362 0.732,-54.545c0.042,-8.769 0.046,-17.538 0.039,-26.308c-0.011,-14.696 -0.05,-29.392 -0.145,-44.087c-0.081,-12.634 -0.198,-25.267 -0.415,-37.899c-0.098,-5.706 -0.215,-11.412 -0.377,-17.116c-0.121,-4.29 -0.263,-8.579 -0.469,-12.865c-0.164,-3.415 -0.374,-6.827 -0.651,-10.234c-0.212,-2.609 -0.463,-5.215 -0.77,-7.815c-0.242,-2.047 -0.519,-4.09 -0.848,-6.125c-0.24,-1.488 -0.507,-2.971 -0.814,-4.446c-0.307,-1.476 -0.653,-2.944 -1.061,-4.396c-0.336,-1.191 -0.713,-2.373 -1.168,-3.525c-0.257,-0.653 -0.546,-1.292 -0.853,-1.923c-0.37,-0.757 -0.771,-1.499 -1.208,-2.219c-0.197,-0.324 -0.403,-0.642 -0.616,-0.956c-1.075,-1.577 -2.38,-3.031 -3.986,-4.081c-0.649,-0.423 -1.343,-0.777 -2.069,-1.049c-0.317,-0.119 -0.639,-0.22 -0.963,-0.314c-0.326,-0.095 -0.652,-0.186 -0.98,-0.272c-1.151,-0.305 -2.314,-0.562 -3.484,-0.782c-2.062,-0.388 -4.145,-0.663 -6.234,-0.859c-3.072,-0.288 -6.156,-0.402 -9.24,-0.417l-5.112,-0.007c-0.887,-1.438 -1.78,-2.872 -2.659,-4.315c-0.131,-0.218 -0.261,-0.437 -0.389,-0.657c-0.351,-0.607 -0.689,-1.221 -1.009,-1.844c-0.552,-1.076 -1.057,-2.176 -1.513,-3.297c-1.26,-3.101 -2.139,-6.352 -2.658,-9.658c-0.329,-2.089 -0.52,-4.202 -0.578,-6.316c-0.026,-0.951 -0.033,-1.903 -0.005,-2.853c0.034,-1.131 0.117,-2.261 0.255,-3.384c0.33,-2.693 0.983,-5.351 2.034,-7.855c0.733,-1.748 1.658,-3.414 2.766,-4.952c0.935,-1.296 1.999,-2.497 3.17,-3.584c1.465,-1.359 3.095,-2.535 4.833,-3.52c1.84,-1.042 3.797,-1.872 5.81,-2.516c0.782,-0.25 1.572,-0.473 2.369,-0.67c0.675,-0.167 1.354,-0.316 2.035,-0.457c1.23,-0.254 2.466,-0.475 3.706,-0.674c2.754,-0.442 5.524,-0.776 8.299,-1.053c3.164,-0.317 6.336,-0.559 9.51,-0.757c3.703,-0.232 7.409,-0.402 11.117,-0.534c5.082,-0.181 10.166,-0.29 15.251,-0.353c3.057,-0.038 6.114,-0.059 9.171,-0.067c2.513,-0.006 5.025,-0.005 7.538,0.015c4.322,0.034 8.644,0.115 12.963,0.275c2.957,0.11 5.913,0.257 8.864,0.464c1.935,0.136 3.868,0.297 5.797,0.497c1.344,0.14 2.686,0.298 4.025,0.483c1.214,0.168 2.425,0.357 3.63,0.578c1.247,0.229 2.488,0.491 3.717,0.806c2.561,0.657 5.074,1.545 7.427,2.758c0.683,0.352 1.351,0.731 2.001,1.14c0.708,0.444 1.393,0.924 2.051,1.438c0.774,0.605 1.508,1.259 2.195,1.96c0.837,0.857 1.603,1.784 2.279,2.773c0.88,1.287 1.607,2.676 2.165,4.132c0.302,0.79 0.555,1.6 0.758,2.421c0.135,0.55 0.245,1.105 0.345,1.661c0.098,0.544 0.188,1.089 0.27,1.635c0.316,2.11 0.531,4.234 0.699,6.36c0.232,2.923 0.372,5.852 0.467,8.782c0.116,3.56 0.16,7.122 0.172,10.685c0.104,60.798 -0.014,121.596 0.002,182.394c0.006,5.989 0.021,11.979 0.054,17.968c0.077,14.111 0.239,28.221 0.509,42.329c0.258,13.487 0.617,26.972 1.11,40.453c0.196,5.362 0.416,10.723 0.656,16.083l0.027,0.6l38.837,0c0.865,1.74 1.741,3.475 2.594,5.221c1.513,3.118 2.748,6.368 3.667,9.71c1.107,4.026 1.759,8.171 1.974,12.34c0.068,1.314 0.094,2.629 0.077,3.944c-0.021,1.598 -0.108,3.195 -0.285,4.783c-0.404,3.595 -1.28,7.193 -3.023,10.388c-0.221,0.406 -0.456,0.805 -0.706,1.195c-0.314,0.492 -0.65,0.969 -1.008,1.43c-0.473,0.608 -0.985,1.186 -1.532,1.728c-0.737,0.729 -1.54,1.388 -2.395,1.973c-2.685,1.839 -5.812,2.932 -8.977,3.602c-0.717,0.152 -1.438,0.283 -2.163,0.395c-0.742,0.113 -1.486,0.211 -2.232,0.292c-1.044,0.112 -2.09,0.194 -3.138,0.251c-1.25,0.068 -2.501,0.098 -3.753,0.107c-53.57,0.141 -107.141,0.001 -160.711,0.001Zm413.811,-61.558c8.264,-0.009 16.554,-0.605 24.667,-2.231c6.062,-1.214 12.031,-3.012 17.643,-5.625c2.24,-1.043 4.42,-2.216 6.514,-3.527c2.218,-1.388 4.338,-2.932 6.333,-4.626c3.422,-2.908 6.453,-6.264 9.018,-9.949c1.731,-2.488 3.25,-5.123 4.609,-7.831c1.711,-3.413 3.172,-6.948 4.452,-10.544c1.14,-3.204 2.136,-6.458 3.022,-9.741c0.948,-3.515 1.771,-7.063 2.495,-10.631c0.884,-4.363 1.624,-8.754 2.252,-13.161c0.598,-4.201 1.094,-8.415 1.508,-12.638c0.642,-6.528 1.089,-13.074 1.395,-19.627c0.397,-8.49 0.548,-16.99 0.532,-25.489c-0.009,-5.327 -0.082,-10.655 -0.231,-15.98c-0.165,-5.962 -0.423,-11.921 -0.799,-17.873c-0.369,-5.838 -0.849,-11.669 -1.476,-17.485c-0.536,-4.98 -1.178,-9.95 -1.958,-14.899c-0.777,-4.927 -1.688,-9.835 -2.783,-14.702c-0.922,-4.098 -1.969,-8.169 -3.191,-12.189c-1.056,-3.476 -2.241,-6.913 -3.592,-10.285c-1.274,-3.178 -2.7,-6.298 -4.324,-9.313c-0.964,-1.789 -2.001,-3.538 -3.111,-5.24c-2.665,-4.091 -5.754,-7.91 -9.276,-11.295c-2.493,-2.396 -5.198,-4.571 -8.08,-6.483c-1.883,-1.249 -3.839,-2.388 -5.854,-3.411c-1.424,-0.723 -2.877,-1.39 -4.353,-2c-1.175,-0.485 -2.365,-0.936 -3.566,-1.352c-7.683,-2.661 -15.803,-3.904 -23.909,-4.222c-1.345,-0.053 -2.691,-0.08 -4.038,-0.084c-4.382,-0.013 -8.766,0.231 -13.115,0.777c-4.022,0.506 -8.014,1.27 -11.932,2.314c-3.802,1.014 -7.532,2.292 -11.153,3.833c-0.737,0.314 -1.47,0.639 -2.198,0.974c-0.787,0.363 -1.568,0.738 -2.339,1.136c-1.571,0.811 -3.099,1.706 -4.573,2.683c-2.238,1.484 -4.35,3.156 -6.312,4.991c-2.092,1.957 -4.009,4.098 -5.749,6.374c-1.992,2.606 -3.751,5.386 -5.301,8.276c-1.312,2.445 -2.478,4.967 -3.484,7.554c-0.889,2.286 -1.66,4.618 -2.339,6.975c-0.869,3.023 -1.587,6.088 -2.189,9.175c-0.986,5.053 -1.662,10.164 -2.133,15.29c-0.489,5.332 -0.751,10.685 -0.852,16.038c-0.032,1.737 -0.046,3.473 -0.048,5.21l0,172.133c6.674,4.094 13.785,7.44 21.106,10.198c1.875,0.706 3.764,1.373 5.664,2.006c1.636,0.543 3.279,1.062 4.935,1.537c2.979,0.856 5.993,1.588 9.03,2.205c6.232,1.267 12.558,2.052 18.905,2.445c3.031,0.188 6.066,0.283 9.103,0.305c0.358,0.002 0.717,0.003 1.075,0.004Zm-1804.66,0c8.264,-0.009 16.554,-0.605 24.667,-2.231c6.062,-1.215 12.031,-3.011 17.644,-5.625c2.317,-1.08 4.571,-2.298 6.732,-3.664c2.068,-1.308 4.05,-2.751 5.922,-4.327c1.774,-1.493 3.448,-3.105 5.005,-4.823c1.571,-1.733 3.023,-3.573 4.35,-5.498c1.781,-2.584 3.335,-5.323 4.721,-8.137c1.65,-3.352 3.065,-6.817 4.306,-10.34c1.135,-3.22 2.127,-6.49 3.008,-9.789c0.943,-3.529 1.76,-7.092 2.48,-10.674c0.761,-3.789 1.411,-7.599 1.976,-11.422c0.687,-4.642 1.244,-9.303 1.703,-13.974c0.641,-6.527 1.09,-13.073 1.395,-19.625c0.395,-8.49 0.549,-16.991 0.532,-25.49c-0.023,-11.291 -0.32,-22.585 -1.031,-33.855c-0.29,-4.606 -0.651,-9.207 -1.098,-13.799c-0.589,-6.057 -1.326,-12.099 -2.262,-18.112c-0.703,-4.518 -1.521,-9.018 -2.485,-13.488c-1.007,-4.669 -2.175,-9.306 -3.563,-13.877c-1.121,-3.692 -2.387,-7.341 -3.846,-10.913c-1.248,-3.053 -2.637,-6.049 -4.213,-8.947c-0.877,-1.614 -1.816,-3.195 -2.813,-4.739c-2.7,-4.18 -5.84,-8.082 -9.43,-11.532c-2.556,-2.456 -5.335,-4.679 -8.297,-6.626c-1.89,-1.242 -3.853,-2.372 -5.874,-3.387c-1.348,-0.678 -2.722,-1.305 -4.117,-1.881c-1.005,-0.416 -2.021,-0.805 -3.045,-1.169c-7.836,-2.786 -16.14,-4.08 -24.43,-4.405c-1.345,-0.053 -2.691,-0.08 -4.037,-0.084c-4.276,-0.013 -8.554,0.22 -12.799,0.738c-4.029,0.493 -8.027,1.244 -11.953,2.275c-3.806,1 -7.544,2.264 -11.17,3.793c-0.831,0.35 -1.656,0.714 -2.475,1.091c-0.873,0.403 -1.738,0.82 -2.589,1.266c-1.566,0.82 -3.088,1.724 -4.556,2.708c-2.23,1.497 -4.333,3.182 -6.284,5.029c-2.013,1.905 -3.863,3.981 -5.546,6.183c-2.058,2.69 -3.866,5.567 -5.451,8.558c-1.196,2.254 -2.27,4.572 -3.206,6.946c-0.99,2.511 -1.837,5.078 -2.573,7.674c-0.783,2.763 -1.44,5.56 -1.999,8.376c-1.064,5.356 -1.778,10.778 -2.261,16.215c-0.443,4.979 -0.691,9.975 -0.796,14.972c-0.04,1.925 -0.057,3.85 -0.059,5.776l0,172.133c1.941,1.19 3.918,2.32 5.929,3.389c5.074,2.697 10.347,5.013 15.731,7.016c1.693,0.63 3.397,1.229 5.11,1.799c1.636,0.544 3.279,1.062 4.936,1.538c2.978,0.855 5.992,1.587 9.028,2.204c6.458,1.313 13.015,2.108 19.591,2.486c2.803,0.161 5.61,0.244 8.417,0.264c0.359,0.002 0.717,0.003 1.075,0.004Zm372.675,0c1.138,-0.002 2.276,-0.016 3.414,-0.048c2.364,-0.066 4.725,-0.202 7.081,-0.411c5.304,-0.471 10.576,-1.317 15.754,-2.561c4.624,-1.11 9.171,-2.536 13.599,-4.271c1.219,-0.477 2.429,-0.977 3.629,-1.5c0.971,-0.423 1.936,-0.86 2.892,-1.317c0.914,-0.436 1.82,-0.891 2.716,-1.365c0.768,-0.406 1.528,-0.827 2.279,-1.262c4.859,-2.816 9.387,-6.288 13.03,-10.584c0.718,-0.846 1.4,-1.722 2.042,-2.626c1.303,-1.837 2.439,-3.793 3.384,-5.838c0.506,-1.096 0.954,-2.217 1.362,-3.353c0.467,-1.299 0.883,-2.616 1.261,-3.943c0.936,-3.294 1.643,-6.651 2.218,-10.025c0.496,-2.91 0.891,-5.836 1.215,-8.769c0.331,-2.993 0.588,-5.993 0.79,-8.997c0.483,-7.178 0.655,-14.374 0.66,-21.567l0,-16.165c-15.914,-2.466 -31.98,-3.913 -48.075,-4.433c-3.869,-0.125 -7.741,-0.197 -11.612,-0.216c-2.524,-0.013 -5.048,-0.004 -7.571,0.051c-4.321,0.093 -8.641,0.305 -12.947,0.682c-2.943,0.257 -5.88,0.592 -8.802,1.026c-3.555,0.529 -7.092,1.204 -10.576,2.091c-2.978,0.758 -5.921,1.672 -8.777,2.809c-2.206,0.879 -4.362,1.892 -6.416,3.087c-1.633,0.95 -3.202,2.015 -4.659,3.22c-1.472,1.218 -2.843,2.558 -4.097,3.999c-0.843,0.969 -1.632,1.985 -2.366,3.039c-0.49,0.704 -0.956,1.426 -1.396,2.162c-2.861,4.78 -4.658,10.132 -5.74,15.578c-0.165,0.829 -0.314,1.662 -0.448,2.497c-0.193,1.204 -0.354,2.413 -0.488,3.624c-0.172,1.563 -0.298,3.13 -0.384,4.7c-0.116,2.125 -0.159,4.253 -0.142,6.381c0.017,2.061 0.089,4.122 0.228,6.179c0.102,1.522 0.241,3.041 0.422,4.556c0.14,1.179 0.306,2.356 0.5,3.528c0.625,3.783 1.54,7.526 2.854,11.131c1.284,3.523 2.955,6.91 5.078,10.004c0.69,1.005 1.426,1.977 2.208,2.912c1.015,1.213 2.105,2.366 3.269,3.438c0.851,0.784 1.74,1.526 2.662,2.224c0.588,0.446 1.191,0.874 1.804,1.284c4.256,2.843 9.042,4.817 13.961,6.179c0.844,0.233 1.692,0.449 2.544,0.648c1.142,0.268 2.291,0.505 3.444,0.717c1.486,0.273 2.981,0.502 4.479,0.693c1.886,0.24 3.779,0.42 5.675,0.549c2.35,0.159 4.704,0.237 7.059,0.259c0.327,0.002 0.655,0.003 0.983,0.004Zm267.523,235.91c-5.12,-0.003 -10.241,-0.064 -15.359,-0.226c-3.926,-0.125 -7.85,-0.307 -11.769,-0.575c-3.118,-0.214 -6.233,-0.482 -9.339,-0.834c-2.18,-0.246 -4.355,-0.534 -6.522,-0.88c-1.821,-0.292 -3.637,-0.625 -5.44,-1.017c-1.856,-0.404 -3.699,-0.871 -5.514,-1.435c-1.551,-0.482 -3.083,-1.036 -4.568,-1.696c-0.917,-0.407 -1.814,-0.858 -2.69,-1.346c-1.86,-1.037 -3.621,-2.252 -5.233,-3.644c-1.238,-1.068 -2.387,-2.24 -3.429,-3.5c-1.287,-1.558 -2.408,-3.251 -3.349,-5.04c-1.269,-2.412 -2.205,-4.991 -2.843,-7.64c-0.613,-2.542 -0.953,-5.146 -1.081,-7.757c-0.053,-1.078 -0.068,-2.158 -0.057,-3.237c0.009,-0.859 0.033,-1.717 0.072,-2.575c0.133,-2.907 0.444,-5.806 0.942,-8.673c0.556,-3.196 1.344,-6.352 2.359,-9.432c1.554,-4.711 3.64,-9.239 6.175,-13.501c1.135,-1.91 2.359,-3.767 3.661,-5.568c0.587,-0.813 1.192,-1.612 1.808,-2.403l3.428,-4.359c2.461,0.496 4.922,0.993 7.384,1.487c1.134,0.226 2.269,0.451 3.404,0.675c9.528,1.865 19.08,3.606 28.667,5.141c5.395,0.864 10.801,1.663 16.218,2.379c8.601,1.136 17.232,2.068 25.89,2.639c4.922,0.325 9.854,0.531 14.787,0.555c2.866,0.014 5.732,-0.035 8.594,-0.17c1.749,-0.083 3.497,-0.198 5.242,-0.354c0.433,-0.039 0.867,-0.08 1.3,-0.124c0.379,-0.039 0.758,-0.077 1.135,-0.133c0.487,-0.072 0.971,-0.167 1.45,-0.283c1.737,-0.419 3.4,-1.11 4.971,-1.959c2.126,-1.148 4.089,-2.587 5.921,-4.158c0.72,-0.618 1.42,-1.258 2.103,-1.916c0.91,-0.878 1.789,-1.787 2.642,-2.719c2.33,-2.55 4.468,-5.272 6.474,-8.083c1.618,-2.266 3.149,-4.592 4.616,-6.958c1.447,-2.336 2.831,-4.711 4.163,-7.114c2.137,-3.853 4.143,-7.777 6.055,-11.746c2.146,-4.455 4.172,-8.969 6.108,-13.519c2.347,-5.514 4.562,-11.084 6.679,-16.69c2.544,-6.733 4.946,-13.519 7.242,-20.341c0.819,-2.434 1.623,-4.872 2.418,-7.314l0.091,-0.281c-0.094,-0.184 -0.187,-0.37 -0.28,-0.556c-0.112,-0.227 -0.223,-0.454 -0.333,-0.682c-1.184,-2.477 -2.253,-5.007 -3.295,-7.546c-1.194,-2.914 -2.345,-5.845 -3.477,-8.784c-1.251,-3.249 -2.478,-6.508 -3.692,-9.772c-1.7,-4.571 -3.373,-9.151 -5.03,-13.737c-3.771,-10.431 -7.464,-20.89 -11.125,-31.36c-4.006,-11.459 -7.97,-22.933 -11.909,-34.415c-7.265,-21.182 -14.449,-42.391 -21.588,-63.615c-7.959,-23.657 -15.861,-47.332 -23.727,-71.02c-3.171,-9.551 -6.337,-19.104 -9.497,-28.658c-2.741,-8.288 -5.474,-16.578 -8.22,-24.863c-0.318,-0.957 -0.637,-1.914 -0.957,-2.87c-2.17,-6.462 -4.397,-12.906 -6.773,-19.295c-1.361,-3.659 -2.767,-7.302 -4.28,-10.9c-0.929,-2.209 -1.894,-4.404 -2.958,-6.551c-0.34,-0.687 -0.691,-1.367 -1.067,-2.035c-0.31,-0.551 -0.635,-1.094 -0.978,-1.625c-0.266,-0.413 -0.543,-0.819 -0.832,-1.216c-0.243,-0.333 -0.494,-0.66 -0.754,-0.98c-0.217,-0.265 -0.44,-0.525 -0.67,-0.779c-1.167,-1.284 -2.531,-2.423 -4.124,-3.137c-0.32,-0.144 -0.648,-0.27 -0.982,-0.378c-0.065,-0.021 -0.13,-0.042 -0.196,-0.06c-0.079,-0.022 -0.16,-0.037 -0.239,-0.053c-0.165,-0.033 -0.331,-0.061 -0.497,-0.088c-0.367,-0.059 -0.736,-0.109 -1.105,-0.154c-1.151,-0.142 -2.307,-0.243 -3.464,-0.331c-1.998,-0.153 -4,-0.262 -6.002,-0.353c-3.302,-0.152 -6.607,-0.252 -9.912,-0.33c-5.844,-0.137 -11.69,-0.198 -17.536,-0.221l-1.122,-0.003l-1.021,-0.002l-6.667,-0.003l-2.263,-5.784c-0.113,-0.294 -0.226,-0.589 -0.338,-0.883c-0.651,-1.736 -1.263,-3.485 -1.816,-5.254c-1.221,-3.905 -2.174,-7.898 -2.757,-11.949c-0.317,-2.2 -0.523,-4.416 -0.603,-6.636c-0.037,-1.048 -0.053,-2.098 -0.019,-3.145c0.032,-0.998 0.109,-1.993 0.237,-2.983c0.3,-2.322 0.887,-4.611 1.817,-6.762c0.683,-1.578 1.547,-3.077 2.583,-4.45c0.874,-1.158 1.869,-2.225 2.96,-3.182c0.816,-0.714 1.685,-1.366 2.595,-1.954c2.351,-1.518 4.963,-2.595 7.661,-3.316c1.127,-0.301 2.269,-0.533 3.418,-0.733c0.8,-0.139 1.603,-0.264 2.408,-0.378c2.386,-0.34 4.786,-0.59 7.187,-0.799c2.792,-0.243 5.588,-0.428 8.386,-0.579c3.31,-0.179 6.623,-0.311 9.936,-0.415c4.594,-0.144 9.19,-0.233 13.786,-0.289c4.043,-0.049 8.085,-0.072 12.128,-0.076c5.085,-0.005 10.171,0.043 15.254,0.21c3.46,0.114 6.919,0.28 10.372,0.53c1.982,0.144 3.963,0.317 5.94,0.529c1.869,0.201 3.735,0.439 5.593,0.731c1.567,0.245 3.127,0.53 4.675,0.873c1.32,0.293 2.63,0.629 3.922,1.03c1.747,0.543 3.459,1.208 5.113,1.991c1.61,0.763 3.165,1.643 4.64,2.642c1.46,0.989 2.841,2.095 4.121,3.31c1.278,1.213 2.454,2.534 3.513,3.944c1.604,2.134 2.939,4.471 3.99,6.925c0.197,0.458 0.359,0.929 0.514,1.402c0.168,0.512 0.327,1.026 0.485,1.541c0.476,1.559 0.932,3.123 1.385,4.688c1.157,3.993 2.287,7.993 3.414,11.994c3.023,10.737 6.006,21.485 8.986,32.234c2.74,9.884 5.472,19.77 8.203,29.657c6.3,22.813 12.592,45.629 18.894,68.441c6.682,24.184 13.372,48.366 20.113,72.533c2.555,9.159 5.117,18.316 7.693,27.469c2.839,10.087 5.695,20.168 8.594,30.238l0.344,1.192c2.229,-8.171 4.409,-16.355 6.574,-24.543c2.827,-10.689 5.62,-21.386 8.392,-32.089c6.796,-26.238 13.476,-52.506 20.049,-78.8c2.478,-9.915 4.939,-19.834 7.378,-29.758c2.449,-9.965 4.876,-19.934 7.266,-29.913c1.846,-7.705 3.671,-15.415 5.45,-23.136c1.529,-6.638 3.031,-13.282 4.424,-19.949l0.086,-0.415l-16.888,0l-2.302,-5.614c-0.379,-0.938 -0.744,-1.881 -1.087,-2.833c-0.727,-2.018 -1.366,-4.068 -1.909,-6.143c-0.681,-2.6 -1.21,-5.24 -1.581,-7.903c-0.291,-2.093 -0.483,-4.2 -0.576,-6.311c-0.067,-1.54 -0.082,-3.082 -0.044,-4.623c0.027,-1.072 0.081,-2.144 0.167,-3.213c0.062,-0.774 0.142,-1.546 0.242,-2.317c0.073,-0.564 0.157,-1.127 0.253,-1.689c0.623,-3.642 1.755,-7.246 3.738,-10.386c0.323,-0.513 0.668,-1.012 1.035,-1.494c0.518,-0.681 1.08,-1.328 1.683,-1.935c1.076,-1.083 2.274,-2.041 3.559,-2.863c1.817,-1.162 3.8,-2.047 5.856,-2.69c2.67,-0.836 5.453,-1.271 8.241,-1.444c0.994,-0.062 1.989,-0.086 2.985,-0.09l116.851,0c0.814,1.76 1.635,3.517 2.442,5.281c0.12,0.265 0.239,0.532 0.357,0.798c0.439,1.004 0.855,2.016 1.243,3.04c0.722,1.905 1.351,3.844 1.886,5.81c1.25,4.6 1.968,9.34 2.182,14.102c0.063,1.403 0.084,2.807 0.061,4.212c-0.032,1.936 -0.154,3.872 -0.402,5.793c-0.068,0.525 -0.146,1.049 -0.235,1.571c-0.595,3.517 -1.683,6.994 -3.575,10.038c-0.304,0.49 -0.628,0.966 -0.972,1.428c-0.464,0.624 -0.966,1.221 -1.503,1.784c-0.876,0.919 -1.848,1.743 -2.888,2.471c-0.397,0.278 -0.805,0.543 -1.22,0.794c-2.885,1.742 -6.132,2.807 -9.424,3.461c-0.563,0.112 -1.128,0.211 -1.695,0.3c-0.775,0.122 -1.553,0.224 -2.333,0.309c-1.078,0.117 -2.161,0.201 -3.244,0.258c-1.28,0.067 -2.56,0.094 -3.841,0.098l-2.581,0c-4.952,15.319 -9.809,30.67 -14.637,46.03c-5.65,17.974 -11.257,35.962 -16.844,53.956c-9.708,31.268 -19.358,62.555 -28.981,93.85c-4.863,15.816 -9.715,31.635 -14.571,47.454c-0.59,1.919 -1.181,3.837 -1.773,5.756c-1.45,4.69 -2.905,9.379 -4.371,14.065c-5.893,18.844 -11.922,37.646 -18.166,56.377c-4.4,13.197 -8.907,26.359 -13.578,39.462c-4.501,12.625 -9.152,25.198 -14.07,37.667c-2.537,6.429 -5.146,12.831 -7.865,19.186c-2.349,5.493 -4.781,10.953 -7.341,16.351c-2.17,4.576 -4.434,9.11 -6.854,13.559c-1.094,2.012 -2.222,4.005 -3.395,5.972c-1.213,2.035 -2.474,4.043 -3.806,6.003c-0.958,1.408 -1.952,2.793 -2.996,4.139c-0.544,0.702 -1.107,1.389 -1.672,2.074c-0.673,0.814 -1.353,1.622 -2.04,2.425c-2.389,2.791 -4.863,5.511 -7.427,8.143c-5.788,5.942 -12.035,11.447 -18.756,16.314c-7.614,5.512 -15.836,10.196 -24.532,13.775c-3.182,1.309 -6.424,2.474 -9.713,3.484c-1.62,0.497 -3.253,0.951 -4.89,1.387c-1.323,0.352 -2.649,0.693 -3.978,1.022c-4.657,1.153 -9.348,2.164 -14.063,3.049c-8.025,1.506 -16.118,2.641 -24.24,3.467c-8.172,0.831 -16.375,1.349 -24.584,1.604c-3.702,0.114 -7.406,0.173 -11.11,0.189c-0.469,0.001 -0.938,0.002 -1.408,0.002Zm-310.599,-166.06c-3.937,-0.003 -7.874,-0.098 -11.805,-0.313c-2.956,-0.161 -5.908,-0.387 -8.853,-0.688c-2.329,-0.238 -4.653,-0.522 -6.969,-0.857c-1.755,-0.254 -3.506,-0.537 -5.251,-0.851c-10.719,-1.933 -21.276,-5.06 -31.058,-9.896c-1.38,-0.682 -2.743,-1.398 -4.087,-2.147c-1.798,-1.004 -3.563,-2.069 -5.287,-3.197c-2.502,-1.636 -4.919,-3.404 -7.231,-5.3c-3.584,-2.94 -6.91,-6.192 -9.939,-9.701c-2.41,-2.794 -4.631,-5.75 -6.65,-8.838c-1.461,-2.235 -2.816,-4.539 -4.066,-6.899c-0.963,-1.819 -1.863,-3.67 -2.703,-5.549c-4.371,-9.777 -7.058,-20.246 -8.538,-30.835c-0.222,-1.59 -0.418,-3.183 -0.587,-4.779c-0.214,-2.009 -0.389,-4.022 -0.525,-6.037c-0.167,-2.46 -0.279,-4.924 -0.342,-7.389c-0.147,-5.811 -0.032,-11.631 0.409,-17.427c0.446,-5.875 1.225,-11.727 2.39,-17.503c1.087,-5.392 2.514,-10.717 4.307,-15.918c1.792,-5.193 3.951,-10.259 6.483,-15.134c2.567,-4.944 5.517,-9.688 8.819,-14.174c3.407,-4.63 7.187,-8.984 11.276,-13.024c3.342,-3.302 6.887,-6.395 10.596,-9.278c1.544,-1.2 3.115,-2.364 4.716,-3.487c2.262,-1.589 4.58,-3.099 6.944,-4.532c8.785,-5.326 18.188,-9.588 27.862,-13.02c8.127,-2.883 16.454,-5.186 24.872,-7.042c9.652,-2.129 19.428,-3.674 29.246,-4.787c6.6,-0.748 13.222,-1.301 19.853,-1.69c5.884,-0.346 11.777,-0.565 17.67,-0.674c3.061,-0.057 6.122,-0.082 9.184,-0.084l49.304,0c-0.34,-6.713 -0.805,-13.421 -1.454,-20.111c-0.533,-5.496 -1.188,-10.981 -2.008,-16.441c-0.62,-4.125 -1.336,-8.236 -2.178,-12.322c-0.619,-3.007 -1.307,-6.001 -2.083,-8.972c-0.807,-3.09 -1.708,-6.157 -2.736,-9.182c-0.88,-2.594 -1.854,-5.157 -2.951,-7.668c-0.84,-1.92 -1.752,-3.809 -2.756,-5.649c-0.824,-1.51 -1.711,-2.988 -2.676,-4.413c-0.594,-0.878 -1.219,-1.735 -1.873,-2.57c-1.412,-1.805 -2.965,-3.5 -4.64,-5.063c-1.379,-1.286 -2.841,-2.482 -4.371,-3.584c-2.796,-2.014 -5.817,-3.705 -8.965,-5.101c-2.951,-1.308 -6.012,-2.358 -9.128,-3.196c-3.202,-0.862 -6.462,-1.501 -9.745,-1.966c-3.548,-0.502 -7.123,-0.8 -10.702,-0.942c-2.663,-0.106 -5.328,-0.116 -7.993,-0.082c-8.33,0.104 -16.655,0.673 -24.915,1.763c-2.68,0.353 -5.352,0.761 -8.014,1.226c-1.32,0.23 -2.638,0.476 -3.953,0.732l-0.013,0.002c-0.515,1.019 -1.031,2.036 -1.55,3.053c-0.409,0.8 -0.82,1.599 -1.231,2.398c-1.078,2.085 -2.166,4.164 -3.28,6.23c-0.873,1.621 -1.761,3.234 -2.685,4.826c-0.701,1.21 -1.421,2.411 -2.201,3.572c-0.797,1.184 -1.667,2.341 -2.748,3.281c-0.332,0.288 -0.681,0.554 -1.046,0.797c-0.825,0.55 -1.723,0.982 -2.636,1.363c-0.959,0.401 -1.94,0.75 -2.924,1.083c-1.491,0.505 -2.997,0.968 -4.506,1.417c-1.956,0.582 -3.92,1.137 -5.887,1.679c-2.238,0.617 -4.481,1.217 -6.726,1.807c-1.753,0.462 -3.505,0.927 -5.272,1.334c-1.537,0.353 -3.084,0.668 -4.638,0.936c-1.265,0.217 -2.535,0.402 -3.81,0.548c-0.919,0.106 -1.841,0.191 -2.764,0.252c-0.699,0.047 -1.399,0.079 -2.1,0.097c-4.328,0.109 -8.726,-0.361 -12.807,-1.872c-0.603,-0.223 -1.198,-0.469 -1.783,-0.738c-0.837,-0.385 -1.653,-0.817 -2.439,-1.297c-0.867,-0.529 -1.699,-1.115 -2.486,-1.757c-0.518,-0.422 -1.013,-0.87 -1.498,-1.33c-0.439,-0.416 -0.869,-0.843 -1.289,-1.279c-1.54,-1.598 -2.955,-3.314 -4.277,-5.096c-1.345,-1.811 -2.594,-3.693 -3.774,-5.615c-1.092,-1.779 -2.124,-3.594 -3.11,-5.433c-1.381,-2.574 -2.674,-5.194 -3.902,-7.844c-0.76,-1.638 -1.496,-3.287 -2.209,-4.946c-1.158,-2.693 -2.254,-5.414 -3.265,-8.166c-0.79,-2.154 -1.527,-4.329 -2.193,-6.525c-0.486,-1.604 -0.934,-3.22 -1.333,-4.848c-0.791,-3.222 -1.396,-6.495 -1.687,-9.802c-0.091,-1.028 -0.15,-2.059 -0.172,-3.091c-0.012,-0.548 -0.016,-1.097 -0.001,-1.645c0.015,-0.591 0.05,-1.181 0.106,-1.77c0.128,-1.36 0.369,-2.71 0.731,-4.028c0.394,-1.435 0.931,-2.831 1.608,-4.156c0.65,-1.273 1.429,-2.479 2.317,-3.598c1.181,-1.488 2.555,-2.818 4.06,-3.976c0.839,-0.646 1.713,-1.25 2.643,-1.758c0.765,-0.42 1.561,-0.784 2.368,-1.114c0.837,-0.341 1.688,-0.646 2.546,-0.929c2.007,-0.663 4.051,-1.209 6.103,-1.711c2.156,-0.528 4.325,-1.001 6.5,-1.446c2.763,-0.565 5.536,-1.082 8.313,-1.573c3.667,-0.649 7.343,-1.249 11.022,-1.822c4.306,-0.671 8.618,-1.302 12.934,-1.909c2.889,-0.406 5.779,-0.804 8.672,-1.183c2.98,-0.39 5.962,-0.759 8.946,-1.107c9.389,-1.098 18.802,-1.993 28.227,-2.705c11.863,-0.896 23.747,-1.5 35.639,-1.845c5.706,-0.165 11.414,-0.271 17.122,-0.319c3.403,-0.029 6.807,-0.045 10.21,-0.022c7.428,0.05 14.855,0.305 22.266,0.824c5.566,0.39 11.123,0.929 16.656,1.652c9.184,1.2 18.314,2.904 27.255,5.335c7.965,2.166 15.79,4.916 23.251,8.46c4.113,1.954 8.113,4.148 11.942,6.614c2.42,1.558 4.778,3.219 7.026,5.019c2.079,1.666 4.068,3.445 5.954,5.327c4.003,3.995 7.535,8.449 10.575,13.216c5.015,7.86 8.673,16.525 11.294,25.457c1.923,6.554 3.295,13.263 4.257,20.022c0.99,6.959 1.547,13.977 1.783,21.001c0.086,2.553 0.126,5.107 0.135,7.661c0.034,41.638 -0.037,83.276 0.002,124.915c0.013,7.744 0.068,15.488 0.194,23.232c0.104,6.431 0.256,12.862 0.478,19.29c0.172,4.973 0.385,9.944 0.663,14.912c0.225,4.021 0.49,8.039 0.821,12.052c0.245,2.975 0.526,5.947 0.863,8.913c0.222,1.959 0.468,3.916 0.751,5.867c0.242,1.666 0.509,3.329 0.819,4.983c0.231,1.237 0.485,2.469 0.776,3.693c0.244,1.02 0.513,2.035 0.829,3.036c0.127,0.403 0.263,0.804 0.411,1.201c0.212,0.566 0.445,1.124 0.689,1.676c0.275,0.621 0.568,1.233 0.885,1.832c0.223,0.422 0.457,0.838 0.705,1.245c0.193,0.319 0.395,0.633 0.606,0.94c0.163,0.238 0.331,0.472 0.506,0.701c0.949,1.245 2.09,2.379 3.478,3.126c0.304,0.164 0.619,0.309 0.942,0.434c0.686,0.264 1.406,0.432 2.135,0.522c1.572,0.194 3.166,0.033 4.713,-0.27l6.353,-1.301l3.14,5.796c0.113,0.213 0.226,0.426 0.338,0.64c0.219,0.424 0.436,0.85 0.646,1.28c0.516,1.058 0.997,2.133 1.44,3.225c1.119,2.76 1.985,5.626 2.525,8.557c0.346,1.875 0.559,3.775 0.627,5.681c0.054,1.516 0.016,3.034 -0.153,4.542c-0.237,2.119 -0.721,4.21 -1.455,6.212c-0.533,1.456 -1.198,2.863 -1.979,4.203c-0.587,1.006 -1.24,1.974 -1.95,2.899c-0.592,0.771 -1.224,1.512 -1.889,2.221c-3.184,3.397 -7.102,6.031 -11.252,8.101c-0.575,0.287 -1.155,0.564 -1.74,0.83c-0.694,0.317 -1.394,0.62 -2.099,0.91c-0.914,0.378 -1.836,0.735 -2.765,1.075c-1.378,0.504 -2.771,0.967 -4.174,1.395c-1.906,0.58 -3.832,1.094 -5.771,1.551c-2.522,0.594 -5.066,1.092 -7.623,1.51c-3.384,0.553 -6.791,0.968 -10.206,1.274c-3.683,0.33 -7.376,0.534 -11.072,0.64c-1.649,0.047 -3.299,0.075 -4.949,0.084c-1.222,0.008 -2.443,0.007 -3.665,-0.018c-2.433,-0.048 -4.865,-0.175 -7.286,-0.416c-2.082,-0.208 -4.156,-0.5 -6.207,-0.91c-1.732,-0.347 -3.449,-0.78 -5.129,-1.326c-0.947,-0.308 -1.883,-0.652 -2.801,-1.038c-0.579,-0.243 -1.154,-0.499 -1.711,-0.793c-0.708,-0.373 -1.388,-0.799 -2.041,-1.262c-1.714,-1.216 -3.244,-2.677 -4.664,-4.22c-1.618,-1.756 -3.104,-3.633 -4.521,-5.554c-1.7,-2.305 -3.301,-4.683 -4.846,-7.094c-2.077,-3.239 -4.053,-6.541 -5.976,-9.873c-0.539,0.298 -1.08,0.592 -1.621,0.886c-1.961,1.062 -3.931,2.107 -5.913,3.13c-4.108,2.121 -8.262,4.155 -12.458,6.094c-7.739,3.577 -15.624,6.836 -23.636,9.751c-7.542,2.743 -15.195,5.179 -22.937,7.294c-13.146,3.591 -26.554,6.245 -40.098,7.777c-5.48,0.619 -10.982,1.056 -16.492,1.3c-3.094,0.137 -6.19,0.21 -9.287,0.228c-0.362,0.001 -0.725,0.002 -1.087,0.002Zm720.308,-7.907c-0.814,-0.002 -1.627,-0.015 -2.439,-0.046c-0.724,-0.027 -1.447,-0.067 -2.169,-0.122c-4.451,-0.336 -8.904,-1.211 -13.013,-2.996c-2.381,-1.034 -4.631,-2.376 -6.63,-4.037c-1.345,-1.118 -2.572,-2.376 -3.652,-3.752c-1.04,-1.325 -1.941,-2.757 -2.695,-4.264c-0.812,-1.625 -1.452,-3.335 -1.931,-5.087c-0.735,-2.688 -1.092,-5.47 -1.171,-8.253c-0.025,-0.895 -0.024,-1.791 0.012,-2.686c0.042,-1.06 0.13,-2.119 0.26,-3.173c0.172,-1.405 0.418,-2.801 0.727,-4.182c0.413,-1.844 0.937,-3.662 1.551,-5.449c0.915,-2.664 2.025,-5.26 3.272,-7.785c1.125,-2.277 2.36,-4.498 3.675,-6.67c0.532,-0.879 1.078,-1.75 1.636,-2.612c0.528,-0.818 1.067,-1.628 1.607,-2.437c1.089,-1.631 2.189,-3.254 3.293,-4.875c2.424,-3.557 4.869,-7.1 7.32,-10.639c2.644,-3.818 5.297,-7.63 7.955,-11.439c5.288,-7.579 10.593,-15.145 15.906,-22.706c6.727,-9.573 13.466,-19.136 20.213,-28.695c4.467,-6.33 8.941,-12.655 13.407,-18.986c1.124,-1.596 2.249,-3.193 3.373,-4.79c12.248,-17.432 24.395,-34.937 36.333,-52.584c5.143,-7.602 10.247,-15.23 15.299,-22.893c4.332,-6.572 8.625,-13.171 12.863,-19.805c3.288,-5.148 6.543,-10.318 9.752,-15.517c2.191,-3.552 4.359,-7.118 6.505,-10.696c3.324,-5.542 6.592,-11.118 9.787,-16.735c3.334,-5.862 6.588,-11.77 9.727,-17.738c3.629,-6.9 7.102,-13.882 10.323,-20.982l0.074,-0.164c-28.28,0 -56.561,-0.167 -84.84,0.001c-0.235,0.003 -0.469,0.006 -0.703,0.012c-2.423,0.065 -4.837,0.312 -7.233,0.671c-2.502,0.374 -4.985,0.87 -7.449,1.443c-2.667,0.621 -5.313,1.333 -7.939,2.109c-3.077,0.909 -6.128,1.906 -9.157,2.965c-6.879,2.405 -13.647,5.122 -20.337,8.008c-8.906,3.842 -17.672,7.999 -26.355,12.319l-7.41,3.7l-4.432,-6.359c-0.183,-0.264 -0.364,-0.528 -0.545,-0.792c-0.891,-1.308 -1.763,-2.629 -2.606,-3.968c-1.797,-2.854 -3.476,-5.784 -5.01,-8.788c-1.804,-3.532 -3.407,-7.168 -4.764,-10.896c-1.069,-2.938 -1.983,-5.932 -2.722,-8.97c-0.592,-2.437 -1.072,-4.901 -1.429,-7.384c-0.275,-1.91 -0.478,-3.83 -0.606,-5.756c-0.082,-1.233 -0.134,-2.468 -0.154,-3.704c-0.033,-1.986 0.017,-3.972 0.199,-5.951c0.346,-3.752 1.153,-7.48 2.607,-10.964c0.442,-1.058 0.944,-2.091 1.504,-3.092c0.672,-1.198 1.431,-2.349 2.273,-3.435c1.073,-1.382 2.278,-2.66 3.598,-3.81c0.658,-0.574 1.343,-1.116 2.057,-1.619c1.144,-0.807 2.355,-1.517 3.607,-2.143c1.819,-0.908 3.723,-1.639 5.665,-2.238c2.168,-0.668 4.385,-1.174 6.619,-1.568c2.455,-0.433 4.934,-0.732 7.418,-0.939c3.346,-0.279 6.703,-0.388 10.059,-0.4c78.636,-0.095 157.271,0 235.907,0c0.908,0.002 1.816,0.011 2.723,0.032c2.55,0.059 5.099,0.215 7.633,0.505c2.508,0.287 5.005,0.707 7.451,1.336c3.127,0.804 6.193,1.957 8.946,3.663c1.416,0.878 2.739,1.903 3.93,3.069c0.794,0.776 1.529,1.611 2.2,2.495c0.545,0.719 1.048,1.471 1.507,2.248c0.351,0.594 0.677,1.203 0.978,1.825c1.947,4.024 2.809,8.493 3.028,12.935c0.057,1.162 0.077,2.327 0.047,3.49c-0.042,1.614 -0.181,3.226 -0.399,4.826c-0.26,1.906 -0.634,3.796 -1.095,5.663c-0.612,2.482 -1.38,4.925 -2.257,7.326c-1.048,2.872 -2.254,5.685 -3.567,8.444c-1.578,3.318 -3.311,6.561 -5.148,9.742c-1.681,2.911 -3.449,5.771 -5.282,8.588c-0.777,1.195 -1.567,2.381 -2.365,3.562c-0.913,1.344 -1.826,2.688 -2.738,4.032c-7.662,11.322 -15.245,22.697 -22.795,34.093c-7.296,11.012 -14.561,22.044 -21.81,33.086c-5.323,8.109 -10.64,16.222 -15.938,24.348c-6.143,9.421 -12.262,18.859 -18.357,28.311c-11.359,17.616 -22.632,35.288 -33.819,53.015c-4.449,7.051 -8.884,14.112 -13.308,21.18c-0.542,0.868 -1.083,1.736 -1.623,2.606c-4.128,6.658 -8.173,13.368 -12.067,20.166c-2.916,5.09 -5.75,10.228 -8.449,15.437c-2.435,4.701 -4.766,9.46 -6.888,14.311c-0.816,1.866 -1.601,3.747 -2.341,5.644c-0.862,2.213 -1.663,4.449 -2.366,6.717l-0.031,0.1c20.639,0 41.277,0.066 61.916,-0.002c0.481,-0.002 0.963,-0.006 1.444,-0.012c2.089,-0.029 4.177,-0.092 6.264,-0.193c7.248,-0.35 14.473,-1.119 21.649,-2.196c7.67,-1.151 15.286,-2.654 22.839,-4.417c7.997,-1.866 15.925,-4.026 23.784,-6.407c8.767,-2.656 17.45,-5.586 26.056,-8.726c3.513,-1.282 7.012,-2.602 10.501,-3.947l8.24,-3.195c1.254,2.521 2.516,5.038 3.763,7.563c0.169,0.346 0.337,0.693 0.505,1.04c0.659,1.38 1.295,2.77 1.9,4.175c1.144,2.651 2.184,5.346 3.112,8.079c1.151,3.388 2.127,6.835 2.915,10.325c0.671,2.975 1.206,5.981 1.596,9.006c0.326,2.531 0.552,5.074 0.678,7.623c0.06,1.215 0.097,2.432 0.11,3.649c0.011,0.947 0.009,1.894 -0.019,2.84c-0.047,1.603 -0.161,3.205 -0.356,4.797c-0.328,2.688 -0.889,5.354 -1.746,7.925c-0.5,1.498 -1.099,2.962 -1.805,4.374c-0.739,1.476 -1.596,2.894 -2.568,4.228c-1.02,1.402 -2.168,2.711 -3.426,3.905c-1.537,1.459 -3.238,2.753 -5.062,3.832c-2.236,1.324 -4.646,2.338 -7.109,3.153c-2.951,0.976 -5.991,1.674 -9.05,2.214c-3.948,0.696 -7.94,1.129 -11.937,1.418c-4.878,0.353 -9.769,0.483 -14.659,0.496c-81.442,0.072 -162.885,0.001 -244.327,0.001Zm419.887,-456.792c-2.216,-0.003 -4.431,-0.056 -6.644,-0.178c-1.716,-0.096 -3.43,-0.231 -5.139,-0.414c-1.269,-0.136 -2.535,-0.297 -3.797,-0.487c-0.982,-0.148 -1.962,-0.314 -2.938,-0.498c-6.22,-1.174 -12.344,-3.127 -17.865,-6.261c-0.852,-0.484 -1.689,-0.996 -2.507,-1.535c-1.081,-0.713 -2.129,-1.475 -3.138,-2.285c-2.285,-1.836 -4.376,-3.917 -6.223,-6.192c-1.64,-2.02 -3.085,-4.197 -4.318,-6.488c-1.097,-2.039 -2.026,-4.168 -2.79,-6.354c-1.52,-4.343 -2.388,-8.895 -2.757,-13.476c-0.102,-1.26 -0.166,-2.522 -0.197,-3.785c-0.008,-0.351 -0.014,-0.702 -0.018,-1.053c-0.001,-0.165 -0.004,-0.641 -0.003,-0.785c0.005,-0.534 0.025,-1.068 0.046,-1.602c0.055,-1.382 0.153,-2.763 0.296,-4.139c0.329,-3.166 0.9,-6.308 1.743,-9.378c0.759,-2.766 1.74,-5.472 2.945,-8.075c1.196,-2.583 2.612,-5.064 4.229,-7.406c1.491,-2.16 3.152,-4.201 4.954,-6.109c1.08,-1.143 2.21,-2.238 3.383,-3.284c1.294,-1.153 2.641,-2.247 4.039,-3.272c1.618,-1.187 3.302,-2.283 5.039,-3.288c1.319,-0.762 2.669,-1.472 4.043,-2.13c1.044,-0.499 2.102,-0.969 3.171,-1.409c7.482,-3.081 15.496,-4.719 23.537,-5.416c1.329,-0.115 2.66,-0.204 3.992,-0.27c1.828,-0.091 3.658,-0.137 5.488,-0.143c2.52,-0.01 5.042,0.048 7.558,0.186c1.958,0.108 3.913,0.264 5.862,0.479c1.465,0.162 2.927,0.356 4.383,0.589c1.152,0.184 2.301,0.392 3.444,0.626c0.868,0.177 1.732,0.37 2.593,0.58c5.275,1.284 10.436,3.192 15.089,6.017c0.672,0.408 1.333,0.835 1.981,1.28c0.826,0.569 1.631,1.168 2.411,1.798c1.495,1.208 2.889,2.535 4.2,3.939c2.508,2.688 4.686,5.681 6.457,8.903c1.635,2.974 2.923,6.133 3.868,9.391c1.672,5.767 2.27,11.807 2.107,17.797c-0.102,3.765 -0.52,7.525 -1.314,11.208c-0.793,3.677 -1.963,7.273 -3.523,10.696c-1.498,3.288 -3.354,6.41 -5.521,9.3c-1.912,2.55 -4.064,4.918 -6.399,7.087c-0.635,0.59 -1.285,1.166 -1.951,1.721c-0.874,0.729 -1.775,1.425 -2.7,2.089c-0.933,0.669 -1.889,1.305 -2.866,1.908c-5.739,3.543 -12.137,5.915 -18.683,7.461c-0.984,0.233 -1.973,0.447 -2.964,0.644c-1.159,0.23 -2.323,0.437 -3.491,0.623c-1.5,0.238 -3.007,0.442 -4.516,0.613c-1.879,0.214 -3.763,0.378 -5.65,0.5c-2.469,0.159 -4.941,0.24 -7.415,0.27c-0.51,0.004 -1.021,0.007 -1.531,0.007Z"/><path id="Outer-Shield-Black" serif:id="Outer Shield Black" d="M354.176,0.005c0,0 0.094,15.45 0.094,15.45l0.011,-15.45c91.584,0.061 183.165,11.905 269.148,40.866c26.279,8.851 52.192,19.095 76.387,32.32l8.517,4.693l0,417.593c-1.434,73.318 -27.797,143.287 -84.321,195.276c-47.752,43.92 -107.465,72.024 -166.223,97.692c-31.274,13.662 -62.792,26.625 -93.897,40.523l-1.658,0.743c0,0 -8.076,3.622 -8.076,3.622c-75.807,-34.075 -155.055,-61.362 -224.698,-107.633c-47.341,-31.453 -89.025,-74.239 -110.42,-128.261c-12.802,-32.323 -18.375,-67.074 -19.04,-101.965l0,-417.591c67.731,-37.305 144.448,-57.966 221.96,-68.881c43.036,-6.06 86.48,-8.879 130.05,-8.995c0.723,-0.001 1.445,-0.013 2.166,-0.002Z"/><path id="Inner-Z-Shield-Yelllow" serif:id="Inner Z Shield Yelllow" d="M76.306,609.263c-20.218,-34.392 -29.459,-74.305 -30.22,-114.225l0,-389.336l1.354,-0.639c91.526,-42.782 192.539,-57.644 292.909,-59.074c6.26,-0.09 13.818,-0.094 13.818,-0.094c1.338,-0.02 2.677,-0.001 4.014,0.003c39.852,0.206 79.452,2.733 118.813,8.131c54.505,7.476 108.581,19.728 159.642,40.437l-486.149,550.041l404.277,-108.021l-175.898,-14.124l282.852,-416.909l0,-0.001l0.529,0.25l0,389.329l-0.014,0.709c-0.811,36.045 -7.935,72.309 -24.716,104.139c-19.045,36.123 -49.406,64.429 -82.807,86.764c-59.368,39.7 -128.218,64.809 -194.371,93.692c-2.013,0.881 -4.025,1.763 -6.035,2.649l-1.199,-0.407c-41.701,-18.335 -83.946,-35.075 -124.877,-54.549c-49.418,-23.511 -99.26,-51.417 -134.444,-93.826c-0.624,-0.752 -1.241,-1.507 -1.852,-2.268l469.083,-532.535l-402.864,106.325l174.946,14.772l-256.791,388.767Z" style="fill:#f5b125;"/></g></svg>